<svg version="1.1" id="Layer_1" xmlns="http://www.w3.org/2000/svg" xmlns:xlink="http://www.w3.org/1999/xlink" x="0px"
    y="0px" width="100px" height="40px" viewBox="0 0 100 23.97" enable-background="new 0 0 100 23.97"
    xml:space="preserve">
    <symbol id="Acer" viewBox="0 -23.971 100 23.971">
        <path fill="#77BC1F" d="M99.818-1.066c-0.343,0.499-0.752,0.843-2.457,0.972c-0.446,0.035-1.922,0.083-4.406,0.083
		c-6.528,0-10.963-1.98-13.233-5.89C80.348-1.968,76.514,0,68.212,0c-9.746,0-15.832-3.925-18.255-11.773
		c-0.901-2.918-0.993-5.309-0.285-7.177l-2.3-0.154c-1.798-0.139-4.162-0.26-5.612-0.26c-3.565,0-5.78,0.599-6.636,1.794
		c-0.767,1.075-0.692,3.069,0.204,5.979c1.488,4.818,5.173,6.987,11.063,6.987c3.053,0.006,6.025-0.321,6.026-0.321v0.001
		c0.409,0.026,0.59,0.452,0.545,0.805l-0.059,0.461l-0.209,1.62c-0.138,1.063-0.93,1.695-2.377,1.891C48.995-0.059,48.01,0,46.562,0
		c-0.027,0-0.054-0.001-0.08-0.001C38.784-0.018,33.42-2.546,30.388-7.582C31.502-2.527,27.944,0,19.699,0
		c-4.582,0-7.868-0.129-9.861-0.389C8.31-0.579,7.379-1.213,7.042-2.286l-0.652-2.08c-0.119-0.382,0.064-0.57,0.554-0.57
		l0.015,0.002c0.362,0.046,1.757,0.183,4.14,0.374c3.151,0.252,5.49,0.379,7.026,0.379c4.537,0,6.447-1.137,5.736-3.406
		c-0.155-0.503-0.5-0.814-1.029-0.936c-4.291-0.711-7.697-1.224-10.217-1.534c-7.09-0.902-11.186-3.109-12.289-6.628
		c-1.514-4.835,2.278-7.254,11.371-7.254c4.535,0,8.342,0.267,11.419,0.783c1.773,0.297,2.672,0.751,3.028,1.894l1.691,5.39
		c-0.176-5.386,3.602-8.098,11.339-8.098c3.35,0,6.526,0.11,8.026,0.37c1.587,0.275,2.345,0.62,2.695,1.817l0.343,1.699
		c1.649-2.57,5.266-3.855,10.85-3.855c5.889,0,9.324,0.165,10.304,0.494c0.821,0.261,1.328,0.685,1.508,1.273
		c0.035,0.105,0.054,0.217,0.072,0.338l0.706,2.288c0.123,0.397-0.062,0.588-0.545,0.571l-3.77-0.181
		c-2.516-0.138-4.486-0.209-5.908-0.209c-2.677,0-4.513,0.182-5.517,0.547c-1.489,0.572-2.198,1.715-2.13,3.433l11.94,1.531
		c5.352,0.684,8.932,2.331,10.746,4.941l-4.046-14.09c-0.077-0.266-0.046-0.48,0.089-0.639c0.151-0.176,0.409-0.261,0.792-0.261
		h4.941c0.863,0,1.172,0.445,1.279,0.819l4.367,15.209c0.575,2.001,2.416,2.975,5.627,2.975c2.898,0,5.084-0.025,6.481-0.077
		c0.037-0.003,0.073-0.004,0.109-0.004c0.272,0,0.765,0.1,1.01,0.761l0.767,2.088C100.055-1.727,100.025-1.37,99.818-1.066z
		 M20.167-19.364c-1.544-0.241-3.759-0.362-6.654-0.362c-5.022,0-7.218,1.013-6.583,3.041c0.457,1.454,1.772,2.33,3.958,2.624
		l11.424,1.534L20.167-19.364z M72.969-7.042c-0.48-1.56-2.716-2.626-6.701-3.199l-9.518-1.351l0.241,0.778
		c0.788,2.563,1.91,4.312,3.357,5.239c1.446,0.926,3.802,1.393,7.065,1.393C71.707-4.182,73.557-5.138,72.969-7.042z" />
    </symbol>
    <use xlink:href="#Acer" width="100" height="23.971" x="0" y="-23.971" transform="matrix(1 0 0 -1 0 0)"
        overflow="visible" />
</svg>