<svg version="1.1" id="Layer_1" xmlns="http://www.w3.org/2000/svg" xmlns:xlink="http://www.w3.org/1999/xlink" x="0px"
    y="0px" width="73.364px" height="73" viewBox="0 0 73.364 14.367" enable-background="new 0 0 73.364 14.367"
    xml:space="preserve">
    <g>
        <path fill="#002F87" d="M70.26,1.818c0-0.819,0.669-1.489,1.494-1.489c0.395,0,0.765,0.159,1.046,0.436
		c0.28,0.286,0.431,0.659,0.431,1.053c0,0.395-0.15,0.773-0.431,1.048c-0.281,0.282-0.651,0.44-1.046,0.44
		C70.929,3.307,70.26,2.64,70.26,1.818z M70.133,1.818c0,0.891,0.729,1.616,1.621,1.616c0.432,0,0.83-0.167,1.139-0.473
		c0.307-0.308,0.471-0.71,0.471-1.144c0-0.434-0.164-0.837-0.471-1.145c-0.309-0.304-0.707-0.473-1.139-0.473
		C70.862,0.201,70.133,0.927,70.133,1.818z M71.149,2.771h0.225V2.019h0.514c0.088,0,0.152,0.007,0.2,0.03
		c0.075,0.043,0.116,0.117,0.118,0.234l0.021,0.294c0,0.067,0.002,0.113,0.002,0.136c0.012,0.023,0.02,0.043,0.021,0.058h0.285
		V2.729C72.5,2.716,72.483,2.68,72.461,2.622c-0.012-0.03-0.012-0.081-0.014-0.147l-0.01-0.236c0-0.101-0.022-0.179-0.051-0.221
		c-0.035-0.045-0.093-0.084-0.158-0.111c0.076-0.036,0.135-0.096,0.183-0.161c0.038-0.069,0.062-0.151,0.062-0.255
		c0-0.201-0.078-0.34-0.236-0.415c-0.082-0.04-0.192-0.058-0.316-0.058h-0.771V2.771z M71.374,1.818v-0.6h0.547
		c0.08,0,0.145,0.013,0.191,0.037c0.077,0.044,0.127,0.129,0.127,0.253c0,0.12-0.033,0.199-0.096,0.246
		C72.083,1.798,72,1.818,71.897,1.818H71.374z M6.645,4.044L0,14.333h4.542l6.388-9.836L6.645,4.044z M33.974,3.813V0H21.059
		c-1.757,0.11-2.525,0.938-3.101,1.536c-0.614,0.634-0.963,1.97-0.963,1.97V0.025c0,0-6.339,0-6.856,0
		c-0.518,0-1.011,0.217-1.383,0.727C8.368,1.257,6.8,3.813,6.8,3.813H33.974z M69.09,3.816V0H55.272
		c-1.751,0.11-2.523,0.938-3.102,1.536c-0.613,0.634-0.959,1.97-0.959,1.97v0.308L69.09,3.816z M38.509,0.019h-3.861v3.795h3.861
		V0.019z M51.183,0.019h-3.857v3.795h3.857V0.019z M51.183,5.183l-3.792-0.224v4.402c0,0-0.012,1.269-1.251,1.269
		c-1.228,0-6.519,0-6.519,0s-1.104-0.09-1.104-1.257c0-1.164,0-5.012,0-5.012l-3.831-0.274v6.751
		c0.619,3.238,3.574,3.488,3.574,3.488s0.301,0.02,0.35,0.025h8.805c0,0,3.769-0.301,3.769-3.88
		C51.183,6.891,51.183,5.183,51.183,5.183z M13.076,14.335h18.06c3.146-0.624,3.474-3.45,3.474-3.45
		c0.148-0.84,0.061-1.519,0.061-1.519C34.576,8.8,33.489,6.3,31.128,6.083c-1.408-0.13-13.936-1.114-13.936-1.114
		C17.435,6.21,18,6.838,18.375,7.196c0.87,0.827,2.254,1.061,2.254,1.061c0.334,0.031,9.656,0.795,9.656,0.795
		c0.297,0.015,0.86,0.09,0.853,0.818c0,0.088-0.081,0.73-0.796,0.73c-0.87,0-13.51,0-13.51,0V4.937l-3.755-0.272V14.335z
		 M51.211,14.367h13.816c3.466-0.197,3.955-3.451,3.955-3.451c0.123-0.854,0.022-1.55,0.022-1.55
		c-0.101-0.77-1.207-3.083-3.57-3.308c-1.399-0.129-13.999-0.865-13.999-0.865c0.373,1.282,0.875,1.669,1.253,2.025
		c0.872,0.83,2.179,1.029,2.179,1.029c0.328,0.026,9.753,0.805,9.753,0.805c0.304,0.015,0.91,0.047,0.91,0.773
		c0,0.219-0.113,0.446-0.253,0.571c0,0-0.334,0.181-0.643,0.181c-0.871,0-13.416,0-13.416,0L51.211,14.367z" />
    </g>
</svg>