<svg version="1.1" id="Layer_1" xmlns="http://www.w3.org/2000/svg" xmlns:xlink="http://www.w3.org/1999/xlink" x="0px"
    y="0px" width="424.886px" height="127.692px" viewBox="0 0 424.886 127.692"
    enable-background="new 0 0 424.886 127.692" xml:space="preserve">
    <path d="M127.935,77.15c-9.963,0-17.86-7.896-17.86-18.104c0-10.083,7.897-17.86,17.86-17.86c10.084,0,17.982,7.777,17.982,17.982
	C145.917,69.375,138.019,77.15,127.935,77.15 M160.982,40.459V28.066h-21.87c-3.523-1.214-7.29-1.943-11.177-1.943
	c-18.832,0-33.654,14.336-33.654,33.046s14.822,33.048,33.654,33.048c18.831,0,33.655-14.338,33.655-33.048
	c0-6.318-1.702-12.514-5.103-17.131L160.982,40.459z M55.28,77.15c-9.962,0-17.86-7.896-17.86-18.104
	c0-10.083,7.898-17.86,17.86-17.86c10.085,0,17.982,7.777,17.982,17.982C73.262,69.375,65.365,77.15,55.28,77.15 M55.28,26.123
	c-18.831,0-33.653,14.336-33.653,33.046S36.449,92.217,55.28,92.217c18.833,0,33.654-14.338,33.654-33.048
	S74.113,26.123,55.28,26.123 M0,90.393h15.552V1.702H0V90.393z M167.786,90.393h15.552V28.066h-15.552V90.393z M127.935,112.506
	c-9.963,0-17.86-7.775-17.86-17.859H94.281c0,18.709,14.822,33.046,33.654,33.046c18.831,0,33.655-14.337,33.655-33.046h-15.795
	C145.795,104.73,137.898,112.506,127.935,112.506 M240.563,52.729c2.063-8.262,8.382-12.878,16.522-12.878
	s14.214,4.495,16.158,12.878H240.563z M257.449,26.123c-18.71,0-32.925,14.336-32.925,33.41c0,18.833,13,32.684,33.167,32.684
	c11.178,0,21.141-4.132,28.431-11.908l-10.448-10.326c-5.104,4.859-10.569,8.384-17.618,8.384c-8.504,0-14.943-4.86-17.13-13.001
	h48.477v-3.767C289.402,40.337,276.281,26.123,257.449,26.123 M395.104,26.123c-7.653,0-14.216,2.915-18.831,7.896V1.702H360.72
	v88.691h15.553V56.496c0-8.991,5.71-15.187,15.187-15.187c8.87,0,13.729,5.466,13.729,15.187v33.896h15.552v-36.69
	C420.739,36.45,409.926,26.123,395.104,26.123 M328.039,41.187c6.561,0,11.906,3.402,16.036,8.142l10.813-10.692
	c-6.073-7.655-15.672-12.514-26.605-12.514c-18.833,0-33.655,14.336-33.655,33.046s14.822,33.048,33.655,33.048
	c10.934,0,20.532-4.861,26.605-12.514l-10.813-10.692c-4.009,4.616-9.476,8.14-16.158,8.14c-9.964,0-17.617-7.775-17.617-17.981
	C310.3,48.964,317.953,41.187,328.039,41.187 M213.954,8.87h-15.551v19.196h-8.384v13.85h8.384v48.477h15.551V41.916h8.505v-13.85
	h-8.505V8.87z M175.44,0c-5.711,0-10.206,4.496-10.206,10.328c0,5.71,4.495,10.205,10.206,10.205
	c5.954,0,10.449-4.495,10.449-10.205C185.889,4.496,181.394,0,175.44,0 M421.869,21.196c-1.713,0-3.084,1.372-3.084,3.017
	c0,1.714,1.371,3.085,3.084,3.085c1.646,0,3.017-1.371,3.017-3.085C424.886,22.568,423.516,21.196,421.869,21.196 M421.869,26.887
	c-1.507,0-2.673-1.166-2.673-2.674c0-1.44,1.166-2.605,2.673-2.605c1.44,0,2.605,1.165,2.605,2.605
	C424.475,25.721,423.31,26.887,421.869,26.887 M423.035,23.596c0-0.686-0.48-0.96-1.166-0.96h-1.096v3.154h0.411v-1.235h0.685
	l0.755,1.235h0.479l-0.822-1.303C422.761,24.418,423.035,24.144,423.035,23.596 M421.185,24.144v-1.097h0.685
	c0.549,0,0.755,0.206,0.755,0.549c0,0.342-0.206,0.548-0.754,0.548H421.185z" />
</svg>