<svg version="1.1" id="Layer_1" xmlns="http://www.w3.org/2000/svg" xmlns:xlink="http://www.w3.org/1999/xlink" x="0px"
    y="0px" width="301.652px" height="94.957px" viewBox="0 2.957 301.652 94.957"
    enable-background="new 0 2.957 301.652 94.957" xml:space="preserve">
    <g>
        <g>
            <g>
                <g>
                    <g>
                        <path
                            d="M297.288,25.044c-2.199,0-3.978,1.78-3.978,3.979c0,2.196,1.778,3.978,3.978,3.978c2.198,0,3.976-1.782,3.976-3.978
						C301.263,26.824,299.486,25.044,297.288,25.044z M297.288,32.418c-1.85,0-3.341-1.529-3.341-3.396
						c0-1.871,1.491-3.396,3.341-3.396c1.844,0,3.349,1.525,3.349,3.396C300.637,30.889,299.132,32.418,297.288,32.418z" />
                        <path d="M297.913,29.34c0.54-0.164,0.932-0.557,0.932-1.195c0-0.739-0.612-1.309-1.374-1.309h-1.479v4.361h0.605v-1.781h0.656
						l1.001,1.781h0.706L297.913,29.34z M296.597,28.901v-1.524h0.807c0.489,0,0.828,0.327,0.828,0.769
						c0,0.437-0.339,0.756-0.828,0.756L296.597,28.901L296.597,28.901z" />
                    </g>
                </g>
            </g>
            <g>
                <path id="msi-corporate_x5F_identity-logo-black-cmyk_5_"
                    d="M269.493,74.283l13.48-37.176c0,0-10.077,0-20.153,2.021
				l-12.746,35.155H269.493z M267.19,27.067l-2.586,7.14c10.139-2.023,20.153-2.023,20.153-2.023l2.588-7.139
				C287.345,25.044,277.268,25.044,267.19,27.067 M196.901,65.459c6.061,1.106,12.31,1.686,18.69,1.686h0.003
				c6.55,0,11.305-1.46,11.817-5.909c0.25-2.117-1.751-3.642-5.418-5.66c-4.194-2.317-7.722-3.472-11.364-5.91
				c-3.646-2.44-5.216-6.276-3.985-10.341c1.432-4.748,4.765-7.499,9.846-10.096c5.958-3.04,10.674-4.184,22.163-4.184
				c7.233,0,14.31,0.7,21.157,2.022l-2.467,6.798c-6.064-1.105-12.31-1.681-18.69-1.681c-6.553,0-11.309,1.461-11.822,5.908
				c-0.245,2.122,1.751,3.647,5.422,5.666c4.19,2.312,7.721,3.467,11.365,5.907c3.647,2.438,5.216,6.274,3.988,10.342
				c-1.436,4.74-4.772,7.496-9.853,10.094c-5.955,3.042-10.674,4.183-22.159,4.183h-0.003c-7.232,0-14.309-0.699-21.153-2.025
				L196.901,65.459z M167.632,74.283l11.245-31.02c3.752-10.342-10.013-6.562-13.088-4.186c-2.415,1.865-6.815,6.118-8.438,10.582
				l-8.927,24.624h-0.001h-19.417l11.245-31.02c3.748-10.342-10.01-6.562-13.087-4.187c-2.416,1.866-6.822,6.119-8.442,10.587
				l-8.922,24.619h-19.42l17.854-49.239c6.184,0,9.529,1.422,12.34,4.188c1.025,1.01,1.666,2.319,2.018,3.713
				c3.643-2.203,6.863-3.854,9.029-4.699c4.038-1.583,9.054-3.204,15.24-3.201c6.181,0,9.527,1.421,12.334,4.187
				c1.03,1.011,1.672,2.319,2.022,3.713c3.642-2.203,6.864-3.853,9.031-4.698c4.034-1.583,9.053-3.204,15.236-3.202
				c6.184,0,9.529,1.422,12.339,4.188c2.806,2.753,2.74,7.788,1.726,10.58l-12.498,34.471L167.632,74.283L167.632,74.283z" />
                <g>
                    <path fill="#ED1C24"
                        d="M68.622,64.917c-2.173,4.989-6.859,14.264-13.859,20.475c-3.979,3.762-8.923,6.91-14.34,9.147
					c-0.102,0.039-0.207,0.06-0.312,0.06c-0.109,0-0.217-0.021-0.318-0.064c-5.48-2.321-10.037-5.224-14.342-9.126
					C19.989,80.453,15.06,73.172,11.57,64.903C6.396,52.64,3.86,38.416,3.8,22.025c-0.002-0.266,0.134-0.512,0.359-0.66
					C14.71,14.499,28.974,8.524,39.9,6.511c0.099-0.018,0.198-0.018,0.299,0c4.584,0.855,9.449,2.266,14.912,4.34
					c7.901,2.999,15.396,6.702,21.026,10.466c0.22,0.145,0.351,0.389,0.351,0.649C76.435,38.079,73.809,52.353,68.622,64.917z" />
                    <g>
                        <path fill="#A7A9AC" d="M78.669,20.975c-0.001-0.346-0.216-0.743-0.506-0.925C69.496,14.085,53.66,6.748,40.524,4.327
						c-0.356-0.062-0.536-0.057-0.846,0C26.832,6.663,11.252,13.887,2.035,20.049c-0.272,0.168-0.502,0.595-0.502,0.925
						c-0.05,18.903,3.35,33.82,8.053,44.941c3.011,7.165,7.938,15.418,14.408,21.246c4.787,4.386,9.651,7.35,15.684,9.82
						c0.242,0.098,0.616,0.094,0.846,0c6.393-2.528,11.668-6.025,15.685-9.82c6.547-5.814,11.444-14.453,14.405-21.246
						C75.911,53.08,78.719,38.047,78.669,20.975z M68.622,64.917c-2.173,4.989-6.859,14.264-13.859,20.475
						c-3.979,3.762-8.923,6.91-14.34,9.147c-0.102,0.039-0.207,0.06-0.312,0.06c-0.109,0-0.217-0.021-0.318-0.064
						c-5.48-2.321-10.037-5.224-14.342-9.126C19.989,80.453,15.06,73.172,11.57,64.903C6.396,52.64,3.86,38.416,3.8,22.025
						c-0.002-0.266,0.134-0.512,0.359-0.66C14.71,14.499,28.974,8.524,39.9,6.511c0.099-0.018,0.198-0.018,0.299,0
						c4.584,0.855,9.449,2.266,14.912,4.34c7.901,2.999,15.396,6.702,21.026,10.466c0.22,0.145,0.351,0.389,0.351,0.649
						C76.435,38.079,73.809,52.353,68.622,64.917z" />
                        <path fill="#FFFFFF" d="M23.806,60.737c-1.404-2.084-6.262-9.062-2.132-19.124c5.904-14.386,21.868-10.471,23.371-9.884
						c-0.033-3.193,3.196-2.838,3.7-2.766c0.038,0.006,0.063,0.027,0.038,0.032c-1.475,0.285-2.911,1.196-2.84,2.689
						c0.063,1.352,1.454,2.316,2.605,2.524l-0.003,0.001c0,0,0.915,0.197,1.58-0.216c0.015-0.006,0.022-0.014,0.034-0.021
						c0.182-0.108,0.344-0.225,0.574-0.293c0.479-0.15,0.965-0.188,1.46-0.07c0.144,0.032,0.401,0.256,0.631,0.245
						c0.152-0.009,0.379-0.213,0.585-0.253c0.564-0.101,1.107,0.203,1.616,0.411c0.357,0.146,1.298,0.283,1.354,0.756
						c0.041,0.339-0.494,0.739-0.765,0.943c-0.319,0.242-0.615,0.402-0.979,0.56c-0.064,0.028,0,0.063,0.108,0.047
						c1.625-0.232,4.333-1.164,3.894,0.72c-0.049,0.215-0.164,0.393-0.126,0.492c1.573-0.531,2.092-1.841,1.891-3.676
						c-0.006-0.044-0.058-0.053-0.08-0.017c-0.14,0.23-0.33,0.409-0.5,0.483c0-0.003,0-0.009-0.002-0.018
						c-0.004-0.493,0.031-1.205-0.24-1.594c-0.029-0.042-0.085-0.046-0.081-0.014c0.127,0.933-0.383,1.396-1.078,1.725
						c-0.547-0.944-1.159-1.805-1.825-2.588c-0.034-0.04-0.085,0.01-0.083,0.074c0.008,0.301-0.068,0.578-0.148,0.83
						c-0.206-0.567-0.655-0.895-1.216-0.97c-0.361-0.049-0.759,0.069-1.188,0.001c-0.553-0.085-1.197-0.482-1.234-0.91
						c-0.072-0.688,1.176-1.012,1.803-1.176c0.132,0.442,0.321,0.814,0.466,1.245c0.583-0.452,1.508-1.157,2.683-1.194
						c0.278-0.007,0.909,0.107,1.004,0.303c0.226,0.463-0.354,1.002-0.531,1.191c-0.098,0.1-0.264,0.224-0.214,0.281
						c1.084-0.274,1.582-0.979,2.325-1.504c0.375,0.492,0.532,1.518,0.497,2.262c-0.001,0.042,0.051,0.066,0.078,0.037
						c0.773-0.84,0.8-2.061,0.723-3.54c0.721,0.238,1.239,0.528,1.729,1.068c0.117,0.128,0.163,0.097,0.085-0.052
						c-0.388-0.746-0.761-1.162-1.633-1.658c-0.28-0.158-0.626-0.262-0.834-0.465c-0.188-0.185-0.42-0.838-0.666-0.88
						c-0.321-0.059-0.73,0.298-1.112,0.326c-0.657,0.046-1.018-0.411-1.147-1.064c-1.61,0.457-2.233-0.542-2.604-1.747
						c-0.063-0.215-0.063-0.498-0.163-0.731c-0.121-0.281-0.758-0.578-1.091-0.708c-0.457-0.176-1.006-0.254-1.526-0.171
						c-0.466,0.075-0.818,0.304-1.364,0.334c-1.319,0.074-2.704-0.57-3.77-1.096c-4.403-2.171-7.427-5.896-8.157-6.737
						c-0.092-0.106-0.11-0.029-0.083,0.042c1.659,4.204,4.801,6.724,7.276,8.324c0,0-5.009-1.104-9.636-4.781
						c-0.08-0.063-0.175-0.096-0.041,0.081c0.553,0.718,2.157,2.672,4.424,4.399l0.051,0.032c-2.427,0.979-6.016,1.368-8.888,2.016
						c-0.101,0.022-0.07,0.065,0.049,0.067c1.564,0.026,3.685,0.475,4.966,0.683c-0.015,0.001-0.027,0.005-0.041,0.007v-0.002
						c-6.526,0.259-12.176,2.149-16.132,5.796c-0.06,0.055-0.015,0.106,0.066,0.073c0.936-0.362,1.81-0.785,2.864-1.037
						c-0.979,0.892-1.949,1.804-2.849,2.777c-0.001,0-0.001-0.001-0.001,0c-0.027,0.031-0.055,0.06-0.082,0.089
						c-0.018,0.021-0.036,0.039-0.054,0.059c-1.207,1.292-1.753,1.153-2.365,0.211c-0.489-0.546-0.484-2.212,0.168-2.566
						c0.798,0.252,1.325-0.45,1.231-1.186c-0.132-1.013-1.233-1.734-1.958-2.217c-0.113-0.077-0.176-0.058-0.102,0.017
						c0.362,0.36,0.845,0.73,0.968,1.262c0.054,0.232,0.041,0.679-0.194,0.745c-0.373,0.107-0.59-0.304-0.955-0.248
						c-0.316,0.049-0.465,0.606-0.529,0.992c-0.067,0.383-0.107,1.02-0.084,1.464c0.009,0.239,0.097,0.613-0.085,0.799
						c-0.216-0.106-0.265-0.391-0.362-0.605c-0.347-0.764-0.95-1.793-0.7-2.814c0.154-0.06,0.448,0.019,0.56-0.083
						c0.049-0.636-0.401-1.223-0.813-1.628c-0.538-0.532-1.571-0.904-2.439-0.675c-0.045,0.013-0.025,0.059,0.038,0.068
						c0.636,0.096,1.718,0.235,1.729,0.828c0.006,0.241-0.284,0.577-0.362,0.771c-0.456,1.134,0.066,2.583,0.615,3.312
						c0.317,0.424,0.773,0.817,0.503,1.602c-0.351-0.02-0.678-0.262-1.006-0.441c-0.467-0.259-0.957-0.505-1.177-0.911
						c-0.238-0.444-0.255-0.9-0.56-1.242c-0.751-0.846-2.344-1.45-3.567-0.834c-0.053,0.027-0.03,0.083,0.034,0.082
						c0.975-0.021,1.857,0.083,2.247,0.725c0.182,0.3,0.298,0.808,0.336,1.271c0.013,0.179-0.038,0.427,0.055,0.578
						c0.163,0.269,0.662,0.221,0.952,0.386c0.392,0.227,0.626,0.835,1.063,1.215c0.106,0.092,0.244,0.203,0.364,0.275
						c0.67,0.404,2.063,0.697,2.603,1.241c0.796,0.802,0.414,2.148,0.106,3.048c-0.355,0.886-0.594,1.876-0.632,3.035
						c-0.002,0.044,0.064,0.069,0.098,0.036c0.772-0.755,1.558-1.704,2.614-2.247c-0.924,1.87-1.718,4.025-2.35,6.291
						c-0.547,1.95-1.337,5.184-0.134,7.059c0.024,0.037,0.088,0.007,0.094-0.044c0.071-0.626,0.103-1.29,0.516-1.581
						c0.758,1.801,2.053,5.409,6.041,9.006C23.829,60.867,23.872,60.837,23.806,60.737z M53.407,24.739
						c0.378,0.085,0.824,0.075,1.021,0.186c0.377,0.222,0.379,0.762,0.626,1.195c-1.499,0.249-1.987-0.833-2.699-1.622
						C52.604,24.516,52.993,24.645,53.407,24.739z" />
                        <path fill="#FFFFFF" d="M32.393,44.019c9.339,3.576,17.394-3.309,19.222-5.154c0.274-0.277,0.178-0.39-0.083-0.197
						c-10.458,7.711-18.585,4.431-18.805,4.018c-0.175-0.334,0.492-0.299,0.492-0.299c12.371,0.895,17.523-6.717,17.512-6.977
						c-0.009-0.227-0.249,0.038-0.249,0.038c-4.5,5.166-17.162,7.55-19.922,3.875c-0.231-0.308-0.499-0.653-0.589-1.077
						c-0.283,0.332-0.475,0.69-0.81,1.048c-0.325,0.348-1.276,1.378-1.341,0.166c-0.054-0.901,0.208-1.086,0.557-1.626
						c0.183-0.281,0.375-0.566,0.532-0.773c1.039-1.366,1.903-2.769,3.117-3.891c0.105-0.099,0.369-0.322,0.25-0.304
						c-7.089,3.1-9.27,8.732-10.056,11.561c-0.404,1.444-0.645,3.099-0.645,4.773c0,1.726,0.23,3.36,0.586,4.854
						c0.71,2.983,1.554,5.062,2.862,7.389c0.437-0.585,0.606-1.366,0.856-2.084c0.269-0.77,0.459-1.78,0.838-2.41
						c0.889-1.479,5.76-1.101,4.43-2.121c-0.387-0.297-0.751-0.644-1.094-0.994c-0.671-0.688-1.302-1.507-1.873-2.317
						c-1.137-1.615-2.094-3.559-2.185-6.097c1.301,3.353,3.267,6.169,6.411,7.697c0.909,0.442,1.95,0.906,3.128,1.003
						c0.176,0.015,0.211-0.05,0.052-0.09c-3.428-0.855-5.571-3.603-7.043-6.487c0,0-0.604-0.961-0.233-1.141
						c0.373-0.179,1.224,0.675,1.827,1.253c1.159,1.108,2.686,1.968,4.366,2.482c2.207,0.681,5.25,0.773,7.7,0.201
						c0.122-0.029,0.107-0.072-0.019-0.063c-2.336,0.161-4.503,0.099-6.279-0.554c-4.906-1.801-6.016-3.992-5.629-4.315
						c0.679-0.569,8.425,6.54,18.065-1.172c0.103-0.082,0.049-0.121-0.09-0.044c-3.164,1.721-9.724,4.167-16.021,0.312
						c-0.336-0.206-0.418-0.345-0.296-0.49C32.078,43.85,32.393,44.019,32.393,44.019z" />
                        <path fill="#FFFFFF" d="M65.424,58.127c-0.188,0.154-0.885,0.03-1.473,0.052c-0.54,0.022-0.975,0.189-1.126,0.294
						c-0.97,0.668-1.274,0.467-1.22,0.019c0.06-0.494,0.097-0.597,0.25-0.986c0.246-0.612,0.667-1.092,0.813-1.713
						c0.139-0.592-0.1-1.032-0.309-1.516c-0.049-0.113-0.153-0.666,0.086-0.909c0.291-0.294,0.592-0.094,1.018-0.327
						c0.829-0.454,1.162-1.478,1.213-2.584c0.004-0.063-0.025-0.088-0.046-0.04c-0.187,0.427-0.637,0.701-1.112,0.974
						c-0.164,0.093-0.74,0.284-1.036,0.528c-0.332,0.275-0.599,1.241-0.955,0.674c-0.283-0.449-0.616-0.834-1.042-1.102
						c-1.066-0.675-2.298-0.673-3.816-0.551c-0.712,0.058-2.509,0.397-3.374,0.31c-0.733-0.059-0.359-1.654,0.788-1.652
						c0.929,0,2.085,0.051,2.561,0.51c0.037,0.034,0.067,0.03,0.046-0.023c-0.405-1.032-2.264-4.855-8.796-4.298
						c-0.051,0.004-0.058,0.039-0.008,0.052c1.37,0.328,2.695,0.577,3.893,1.245c0.38,0.214,1.144,0.766,0.967,1.567
						c-0.134,0.604-1.165,1.848-1.739,2.056c-0.53,0.192-3.644,0.255-3.795-3.654c0-0.017-0.025-0.038-0.036,0.026
						c-0.453,2.7,1.048,4.303,3.268,4.781c0.583,0.122,0.575,1.229,0.446,1.754c-0.154,0.626-1.081,0.674-1.803,0.573
						c-0.781-0.106-1.809-0.771-2.259-1.096c-0.839-0.604-1.184-1.183-1.591-1.879c-0.109-0.186-0.213-0.181-0.141,0.011
						c2.65,6.934,9.724,4.595,10.868,3.785c0.037-0.027,0.005-0.076-0.041-0.076c-1.522-0.006-3.325,0.018-3.751-1.02
						c-0.142-0.351-0.306-1.798,0.583-1.751c1.309,0.066,1.903-0.102,2.994-0.172c0.91-0.059,1.787-0.093,2.536,0.15
						c0.766,0.248,1.355,0.766,1.726,1.31c0.757,1.111,0.595,3.019,0.309,4.608c-0.255,1.423-0.781,2.729-1.26,3.917
						c-1.025,2.555-3.075,6.433-4.702,7.864c-1.961,1.652-4.4,2.609-7.25,3.338c-1.146,0.29-2.436,0.525-3.668,0.578
						c-2.921,0.129-5.278-0.276-6.828-1.654c-0.715-0.639-1.268-1.525-1.68-2.538c-0.846-2.444,0.838-3.044,4-2.073
						c1.002,0.308,1.651-0.588,2.38-0.605c0.376-0.008,0.655,0.252,1.008,0.167c0.231-0.058,0.434-0.494,0.642-0.771
						c0.207-0.277,0.467-0.567,0.729-0.719c0.953-0.547,1.932,0.145,2.59,0.526c0.034,0.019,0.039-0.049,0.005-0.099
						c-0.675-1.003-2.519-1.726-3.938-1.032c-0.304,0.146-0.564,0.535-0.924,0.744c-0.571,0.327-1.332,0.236-2.07,0.192
						c-0.253-0.016-0.531,0.06-0.729-0.109c0.19-0.947,1.095-0.978,1.761-1.382c0.964-0.581,1.889-1.457,1.988-2.841
						c0.016-0.183-0.063-0.447,0.084-0.634c0.139-0.177,0.484-0.203,0.811-0.166c0.451,0.049,0.883,0.229,1.276,0.427
						c0.013,0.008,0.052,0.009,0.023-0.033c-0.075-0.106-0.15-0.18-0.208-0.228c-1.063-0.91-3.537-0.541-4.085,0.578
						c0.097,0.191,0.433,0.213,0.477,0.441c0.047,0.263-0.322,0.626-0.505,0.829c-0.496,0.537-0.964,0.841-1.509,1.213
						c-0.277,0.185-0.515,0.502-0.842,0.469c0.165-0.657,0.515-0.915,0.812-1.49c0.194-0.38,0.691-1.378,0.42-1.793
						c-0.169-0.255-0.989-0.117-1.121-0.413c-0.108-0.238,0.093-0.549,0.222-0.689c0.318-0.34,0.906-0.559,1.498-0.708
						c0.137-0.034,0.08-0.085-0.104-0.07c-1.106,0.093-2.616,0.466-3.015,1.249c-0.311,0.604-0.035,1.466,0.644,1.543
						c0.261,0.844-0.419,1.893-0.925,2.289c-0.111,0.09-0.272,0.207-0.419,0.221c-1.505,0.146-1.965-0.542-2.087-1.163
						c-0.005-0.699,0.024-1.422,0.091-2.167c0.004-0.049-0.035-0.11-0.098-0.041c-0.474,0.512-2.401,2.725-5.459,1.635
						c-0.365-0.13-0.679-0.434-0.869-0.803c-0.525-1.011,0.04-2.007,0.663-2.446c2.095-1.479,3.465-0.092,3.248,0.68
						c-0.073,0.259-0.3,0.901-1.167,0.748c-0.479-0.085-0.807-0.39-1.035-0.638c-0.055-0.055-0.253-0.27-0.275-0.054
						c-0.203,2.083,2.579,2.336,3.884,1.02c0.955-0.961,1.331-2.949,0.449-4.219c-0.517-0.741-1.494-1.014-2.576-0.856
						c-0.971,0.146-2.255,0.405-2.852,0.869c-0.845,0.647-1.038,1.989-1.289,3.077C26,62.548,25.08,63.111,25.103,63.24
						c0,0,0.745-0.212,1.446,0.478c0.701,0.688-0.533,0.128-1.358,0.633c-0.001,0-0.002,0.001-0.002,0.002
						c-0.019,0.01-0.038,0.02-0.057,0.029c-1.599,0.89-2.495,2.647-2.785,4.769c-0.016,0.12,0.035,0.176,0.083,0.087
						c0.433-0.79,1.347-1.241,2.311-1.683c0.332-0.149,1.487-0.403,2.088-0.84c0.237-0.171,0.37-0.421,0.415-0.698v-0.001
						c0.157-0.626,0.764-0.699,0.742-0.124c-0.034,0.863-0.662,1.538-0.28,2.537c0.399,1.049,1.53,1.529,2.461,2.178
						c0.899,0.626-0.542,0.849-1.045,1.157c-1.321,0.807-2.111,2.237-2.355,4.031c-0.015,0.104,0.029,0.149,0.07,0.075
						c0.366-0.67,1.14-1.051,1.956-1.423c0.279-0.129,1.256-0.343,1.763-0.711c0.179-0.13,0.288-0.312,0.336-0.517l0,0
						c0.424-1.222,0.803-0.662,0.872-0.307c0.076,0.387,0.157,0.773,0.364,1.09c0.493,0.751,1.655,0.657,2.743,0.853
						c0.387,0.072,0.823,0.383-0.073,0.842c-0.001,0-0.002,0.003-0.003,0.004c-0.087,0.048-0.175,0.106-0.261,0.185
						c-1.114,1.001-1.509,2.568-1.355,4.314c0.011,0.1,0.061,0.135,0.084,0.056c0.201-0.711,0.849-1.237,1.539-1.766
						c0.237-0.179,1.112-0.592,1.512-1.051c0.154-0.176,0.214-0.396,0.203-0.62l0.001-0.001c-0.058-1.168,0.56-0.966,0.746-0.666
						c0.329,0.529,0.588,1.114,1.272,1.354c0.649,0.224,1.191-0.095,1.736-0.249c0.414-0.119,0.855-0.197,1.259-0.25
						c0.683-0.091-0.04,1.245-0.063,1.293c-0.563,1.14-0.38,2.497,0.292,3.823c0.038,0.075,0.091,0.087,0.083,0.017
						c-0.066-0.622,0.279-1.24,0.655-1.874c0.128-0.217,0.714-0.809,0.86-1.304c0.081-0.277-0.022-0.528-0.045-0.574
						c-0.371-1.04,0.224-1.216,0.707-1.049c0.867,0.3,1.764,0.28,2.492,0c0.713-0.272,1.201-0.739,1.765-1.193
						c0.289-0.231,1.12-1.034,1.622-1.24c0.757-0.313,0.267,0.693,0.63,1.357c0.553,1.008,1.465,1.757,2.768,2.095
						c0.074,0.021,0.113-0.007,0.062-0.044c-0.463-0.33-0.675-0.935-0.878-1.569c-0.069-0.218-0.14-0.958-0.369-1.364
						c-0.041-0.073-0.135-0.185-0.377-0.303c-0.775-0.413-0.478-1.004,0.32-1.186c1.567-0.359,3.359-0.729,4.199-1.793
						c0.442-0.559,0.64-1.405,0.838-2.318c0.163-0.74,0.384-1.44,0.589-2.115c0.311-1.036,1.022-0.021,1.928,0.152
						c1.128,0.218,2.264-0.313,3.242-1.24c0.055-0.052,0.052-0.1-0.007-0.075c-0.523,0.217-1.149,0.078-1.795-0.085
						c-0.222-0.057-0.887-0.389-1.353-0.411c-0.06-0.003-1.735,0.302-0.838-0.807c0.474-0.584,1.031-1.125,1.456-1.737
						c0.537-0.781,0.762-1.964,0.972-3.157c0.155-0.879,0.945-0.207,1.892-0.383c0.93-0.172,1.713-0.776,2.266-1.734
						C65.479,58.133,65.465,58.095,65.424,58.127z" />
                    </g>
                </g>
            </g>
        </g>
    </g>
    <g>
        <path fill="none"
            d="M-47.354,73.015l31.02,11.246c10.342,3.75,6.562-10.013,4.185-13.087c-1.864-2.415-6.118-6.816-10.581-8.438
		l-24.624-8.929v-0.001V34.391l31.02,11.245c10.343,3.749,6.563-10.01,4.185-13.086c-1.864-2.417-6.117-6.822-10.585-8.442
		l-24.62-8.923v-19.42L1.885,13.619c0,6.183-1.423,9.526-4.188,12.338c-1.01,1.026-2.319,1.667-3.714,2.018
		c2.203,3.643,3.854,6.862,4.699,9.029c1.583,4.039,3.205,9.055,3.203,15.241c0,6.181-1.423,9.527-4.188,12.335
		c-1.01,1.03-2.319,1.671-3.714,2.021c2.203,3.643,3.853,6.864,4.699,9.031c1.583,4.035,3.205,9.055,3.203,15.237
		c0,6.186-1.423,9.528-4.189,12.338c-2.752,2.806-7.789,2.742-10.58,1.727l-34.471-12.498L-47.354,73.015L-47.354,73.015z" />
        <path fill="none" d="M336.938,28.321l-31.02-11.246c-10.342-3.752-6.563,10.012-4.186,13.086c1.863,2.416,6.118,6.816,10.581,8.439
		l24.623,8.926v0.002v19.417L305.919,55.7c-10.343-3.749-6.563,10.011-4.186,13.087c1.863,2.417,6.117,6.821,10.586,8.442
		l24.618,8.923v19.42l-49.238-17.854c0-6.183,1.423-9.528,4.188-12.339c1.01-1.025,2.319-1.667,3.714-2.017
		c-2.203-3.645-3.854-6.863-4.699-9.03c-1.583-4.039-3.204-9.055-3.201-15.241c0-6.181,1.422-9.527,4.187-12.334
		c1.011-1.03,2.319-1.672,3.714-2.021c-2.202-3.643-3.854-6.865-4.698-9.031c-1.584-4.035-3.204-9.054-3.202-15.237
		c0-6.185,1.422-9.528,4.188-12.338c2.752-2.807,7.789-2.741,10.58-1.726l34.471,12.498V28.321L336.938,28.321z" />
        <path fill="none"
            d="M174.097,146.293l11.246-31.02c3.752-10.342-10.012-6.562-13.087-4.186c-2.415,1.864-6.816,6.118-8.438,10.581
		l-8.927,24.624h-0.001h-19.417l11.245-31.02c3.747-10.342-10.011-6.562-13.087-4.187c-2.416,1.864-6.822,6.119-8.442,10.586
		l-8.923,24.62h-19.42L114.7,97.054c6.183,0,9.528,1.423,12.339,4.188c1.026,1.01,1.667,2.318,2.018,3.714
		c3.643-2.203,6.863-3.854,9.031-4.699c4.038-1.583,9.052-3.203,15.239-3.202c6.181,0,9.526,1.423,12.334,4.188
		c1.031,1.01,1.672,2.318,2.022,3.714c3.642-2.203,6.864-3.854,9.031-4.699c4.034-1.583,9.054-3.203,15.235-3.202
		c6.186,0,9.529,1.423,12.339,4.188c2.807,2.753,2.743,7.789,1.726,10.58l-12.496,34.471L174.097,146.293L174.097,146.293z" />
        <path fill="none" d="M129.405-44.957l-11.247,31.02c-3.752,10.342,10.013,6.562,13.087,4.186c2.415-1.864,6.817-6.118,8.438-10.581
		l8.928-24.624h0.001h19.416l-11.245,31.02c-3.747,10.342,10.012,6.563,13.088,4.186c2.416-1.863,6.822-6.118,8.441-10.586
		l8.923-24.619h19.422L188.802,4.282c-6.184,0-9.529-1.422-12.341-4.187c-1.025-1.011-1.666-2.319-2.017-3.715
		c-3.643,2.204-6.863,3.854-9.03,4.7c-4.038,1.583-9.054,3.204-15.24,3.202c-6.18,0-9.526-1.422-12.334-4.188
		c-1.03-1.01-1.672-2.318-2.023-3.714c-3.64,2.205-6.861,3.854-9.029,4.7c-4.035,1.583-9.054,3.204-15.236,3.202
		c-6.185,0-9.529-1.422-12.338-4.188c-2.807-2.753-2.742-7.789-1.727-10.581l12.497-34.47H129.405z" />
    </g>
</svg>