<svg version="1.1" id="Layer_1" xmlns="http://www.w3.org/2000/svg" xmlns:xlink="http://www.w3.org/1999/xlink" x="0px"
    y="0px" width="521.698px" height="96.19px" viewBox="0 0 521.698 96.19" enable-background="new 0 0 521.698 96.19"
    xml:space="preserve">
    <path id="Reg_1_"
        d="M514.961,77.143v-1.44h0.925c0.506,0,1.194,0.037,1.194,0.655c0,0.667-0.355,0.785-0.951,0.785H514.961
	 M514.961,78.155h0.618l1.435,2.519h1.573L517,78.053c0.82-0.06,1.496-0.449,1.496-1.556c0-1.372-0.948-1.813-2.55-1.813h-2.315
	v5.99h1.33V78.155 M521.698,77.686c0-3.518-2.733-5.559-5.779-5.559c-3.067,0-5.799,2.042-5.799,5.559
	c0,3.517,2.731,5.564,5.799,5.564C518.965,83.25,521.698,81.203,521.698,77.686 M520.031,77.686c0,2.563-1.887,4.284-4.112,4.284
	v-0.018c-2.288,0.018-4.139-1.702-4.139-4.266c0-2.561,1.851-4.275,4.139-4.275C518.145,73.411,520.031,75.125,520.031,77.686z" />
    <path id="NVIDIA_3_" d="M309.501,18.176l0.007,63.136h17.83V18.177L309.501,18.176z M169.234,18.09v63.222h17.99V32.236
	l14.034,0.046c4.616,0,7.806,1.106,10.031,3.48c2.821,3.006,3.972,7.85,3.972,16.717v28.832h17.429V46.381
	c0-24.929-15.891-28.292-31.437-28.292H169.234z M338.211,18.178v63.134h28.92c15.41,0,20.438-2.563,25.877-8.308
	c3.845-4.035,6.328-12.889,6.328-22.565c0-8.875-2.101-16.791-5.771-21.721c-6.604-8.815-16.122-10.539-30.331-10.539H338.211z
	 M355.897,31.925h7.666c11.123,0,18.316,4.995,18.316,17.955c0,12.961-7.193,17.956-18.316,17.956h-7.666V31.925z M283.793,18.178
	l-14.881,50.037l-14.26-50.034l-19.248-0.003l20.364,63.134h25.699l20.523-63.134H283.793z M407.634,81.312h17.833V18.181
	l-17.837-0.003L407.634,81.312z M457.618,18.201L432.72,81.29h17.583l3.938-11.15h29.466l3.729,11.15h19.089l-25.088-63.094
	L457.618,18.201z M469.193,29.711l10.801,29.557h-21.942L469.193,29.711z" />
    <path id="Eye_Mark_1_" fill="#82BC00" d="M54.237,28.702v-8.689c0.843-0.06,1.695-0.105,2.563-0.132
	C80.565,19.134,96.156,40.3,96.156,40.3S79.317,63.688,61.262,63.688c-2.6,0-4.927-0.419-7.025-1.124V36.217
	c9.251,1.118,11.111,5.205,16.675,14.476l12.37-10.431c0,0-9.029-11.843-24.251-11.843C57.375,28.419,55.792,28.537,54.237,28.702
	 M54.237,0v12.978c0.853-0.067,1.707-0.122,2.563-0.153c33.048-1.113,54.578,27.104,54.578,27.104S86.648,70,60.885,70
	c-2.36,0-4.571-0.219-6.648-0.585v8.022c1.776,0.226,3.616,0.359,5.536,0.359c23.976,0,41.314-12.243,58.104-26.735
	c2.782,2.229,14.179,7.65,16.522,10.028c-15.964,13.363-53.167,24.134-74.258,24.134c-2.032,0-3.987-0.122-5.904-0.307V96.19h91.127
	V0H54.237z M54.237,62.564v6.851c-22.175-3.954-28.33-27.005-28.33-27.005s10.646-11.797,28.33-13.708v7.515
	c-0.014,0-0.023-0.003-0.035-0.003c-9.279-1.114-16.529,7.556-16.529,7.556S41.735,58.364,54.237,62.564 M14.852,41.412
	c0,0,13.143-19.393,39.386-21.398v-7.035C25.171,15.311,0,39.929,0,39.929s14.256,41.213,54.237,44.987v-7.479
	C24.897,73.746,14.852,41.412,14.852,41.412z" />
</svg>